<svg xmlns="http://www.w3.org/2000/svg" version="1.0" preserveAspectRatio="xMidYMid meet" viewBox="341.75 283.8 616.09 667.17">

<g transform="translate(0.000000,1300.000000) scale(0.100000,-0.100000)" fill="#000000" stroke="none">
<path d="M6245 10144 c-267 -42 -523 -145 -745 -302 -130 -92 -319 -282 -409 -412 -136 -196 -234 -426 -281 -660 -28 -137 -37 -381 -21 -527 44 -380 213 -732 484 -1006 270 -274 576 -432 971 -502 38 -6 39 -6 26 12 -12 15 -11 15 9 -2 22 -19 38 -20 236 -20 199 0 214 1 236 20 12 11 19 14 15 8 -11 -19 15 -16 132 12 581 141 1047 569 1236 1135 99 298 112 658 35 962 -74 293 -228 566 -443 782 -316 319 -714 497 -1146 513 l-145 5 30 -33 30 -34 -35 33 c-41 37 -66 39 -215 16z m285 -37 c0 -2 -12 -14 -27 -28 l-28 -24 24 28 c23 25 31 32 31 24z m-60 -60 c0 -2 -15 -16 -32 -33 l-33 -29 29 33 c28 30 36 37 36 29z m160 -84 c0 -8 -9 0 -50 45 l-45 47 48 -45 c26 -24 47 -45 47 -47z m-260 -16 c0 -2 -12 -14 -27 -28 l-28 -24 24 28 c23 25 31 32 31 24z m310 -32 c19 -19 32 -35 29 -35 -3 0 -20 16 -39 35 -19 19 -32 35 -29 35 3 0 20 -16 39 -35z m-405 -65 l-29 -31 59 8 c79 10 313 10 395 0 l65 -9 -25 29 c-21 24 -20 23 10 -4 21 -19 54 -36 80 -42 157 -35 363 -132 501 -236 110 -82 259 -238 332 -348 102 -152 177 -337 214 -522 27 -135 24 -396 -5 -532 -41 -191 -109 -350 -219 -516 -69 -103 -368 -398 -395 -389 -5 1 -25 -9 -46 -22 -111 -70 -275 -134 -432 -168 -127 -28 -414 -31 -536 -6 -118 25 -268 75 -359 120 -79 40 -80 40 -55 12 13 -16 2 -8 -25 17 -28 25 -72 61 -100 79 -287 190 -510 528 -582 885 -21 109 -25 412 -5 517 48 258 194 535 382 726 194 196 393 308 695 391 23 6 54 24 70 41 16 16 31 30 34 30 2 0 -8 -14 -24 -30z m965 -2624 c0 -2 -8 -10 -17 -17 -16 -13 -17 -12 -4 4 13 16 21 21 21 13z m-1340 -101 c19 -19 32 -35 29 -35 -3 0 -20 16 -39 35 -19 19 -32 35 -29 35 3 0 20 -16 39 -35z m1270 32 c0 -2 -10 -12 -22 -23 l-23 -19 19 23 c18 21 26 27 26 19z m-1195 -107 c10 -11 16 -20 13 -20 -3 0 -13 9 -23 20 -10 11 -16 20 -13 20 3 0 13 -9 23 -20z m1105 16 c0 -2 -8 -10 -17 -17 -16 -13 -17 -12 -4 4 13 16 21 21 21 13z m-1030 -91 c13 -14 21 -25 18 -25 -2 0 -15 11 -28 25 -13 14 -21 25 -18 25 2 0 15 -11 28 -25z m950 11 c0 -2 -8 -10 -17 -17 -16 -13 -17 -12 -4 4 13 16 21 21 21 13z m-864 -98 l29 -33 -32 29 c-31 28 -38 36 -30 36 2 0 16 -15 33 -32z m794 29 c0 -2 -10 -12 -22 -23 l-23 -19 19 23 c18 21 26 27 26 19z m-714 -109 l29 -33 -32 29 c-31 28 -38 36 -30 36 2 0 16 -15 33 -32z m624 18 c0 -2 -8 -10 -17 -17 -16 -13 -17 -12 -4 4 13 16 21 21 21 13z"/>
<path d="M6285 6544 c-16 -2 -79 -9 -140 -15 -288 -28 -631 -118 -892 -233 -508 -223 -948 -586 -1290 -1064 -252 -353 -442 -820 -512 -1257 -28 -174 -40 -319 -30 -363 22 -97 125 -148 220 -108 59 24 84 64 95 147 l7 54 -29 -25 -29 -25 27 30 c22 25 29 48 43 145 87 611 348 1147 764 1569 139 142 182 178 331 290 418 313 889 487 1434 531 145 11 313 12 429 2 42 -4 77 -5 77 -3 0 3 -8 14 -17 26 -10 11 -6 9 8 -6 23 -22 42 -28 145 -43 365 -52 723 -182 1024 -370 283 -177 479 -352 731 -654 11 -13 24 -20 29 -17 5 3 8 0 5 -7 -3 -7 18 -45 46 -83 137 -187 269 -447 364 -714 59 -168 120 -459 131 -630 3 -47 12 -105 21 -129 43 -122 222 -136 285 -22 17 31 19 49 14 155 -18 392 -173 895 -393 1275 -50 86 -190 301 -202 310 -4 3 -20 23 -36 45 -119 163 -367 412 -557 559 -139 106 -232 166 -450 290 -89 50 -288 135 -420 180 -260 87 -505 136 -791 157 l-158 12 -47 -44 c-25 -24 -39 -35 -29 -23 16 19 16 21 -1 39 -17 19 -16 19 4 2 20 -16 22 -16 39 3 18 20 18 20 -101 19 -65 -1 -132 -4 -149 -5z m266 -71 c13 -16 12 -17 -3 -4 -10 7 -18 15 -18 17 0 8 8 3 21 -13z m-101 -36 c0 -2 -10 -12 -22 -23 l-23 -19 19 23 c18 21 26 27 26 19z m160 -22 c13 -14 21 -25 18 -25 -2 0 -15 11 -28 25 -13 14 -21 25 -18 25 2 0 15 -11 28 -25z m80 -80 c13 -14 21 -25 18 -25 -2 0 -15 11 -28 25 -13 14 -21 25 -18 25 2 0 15 -11 28 -25z m-330 11 c0 -2 -8 -10 -17 -17 -16 -13 -17 -12 -4 4 13 16 21 21 21 13z m-80 -79 c0 -2 -10 -12 -22 -23 l-23 -19 19 23 c18 21 26 27 26 19z m3105 -2647 c60 -60 107 -110 105 -110 -3 0 -55 50 -115 110 -60 61 -107 110 -105 110 3 0 55 -49 115 -110z m-5715 17 c0 -1 -33 -34 -72 -72 l-73 -70 70 73 c64 67 75 77 75 69z"/>
</g>
</svg>